# xmcd
#
# Track frame offsets:
# 150
# 18130
# 37702
# 53905
# 73107
# 95347
# 111832
# 131470
# 149037
# 169992
# 184875
# 202327
# 220832
# 235387
#
# Disc length: 3432 seconds
#
#
# Revision: 1
# Processed by: cddbd v1.5.2PL0 Copyright (c) Steve Scherf et al.
# Submitted via: FreeRIP 2.951 
#
DISCID=d10d660e
DTITLE=Ýzel - Þak
DYEAR=2003
DGENRE=Pop
TTITLE0=Kime zarar
TTITLE1=Gizli Macera
TTITLE2=Þak
TTITLE3=Maþa
TTITLE4=Kendime Yaþayacaðým
TTITLE5=Aþk Ýhanetleri
TTITLE6=Fenalardayim
TTITLE7=Aþka Geldim
TTITLE8=Annemin Sucu
TTITLE9=Dile Benden
TTITLE10=Ben Halinden Anlarým
TTITLE11=Köle Gibi
TTITLE12=Gurur Meselesi
TTITLE13=Ben Halinden Anlarim Remix
EXTD=Metin@metin.nom.tr
EXTT0=
EXTT1=
EXTT2=
EXTT3=
EXTT4=
EXTT5=
EXTT6=
EXTT7=
EXTT8=
EXTT9=
EXTT10=
EXTT11=
EXTT12=
EXTT13=
PLAYORDER=
